<svg xmlns="http://www.w3.org/2000/svg" xmlns:xlink="http://www.w3.org/1999/xlink" width="39" height="39" viewBox="0 0 39 39"><defs><clipPath id="b"><rect width="39" height="39"/></clipPath></defs><g id="a" clip-path="url(#b)"><path d="M-2495-10920h-31a3,3,0,0,1-3-3v-31a3,3,0,0,1,3-3h18.949l15.05,11.758V-10923A3,3,0,0,1-2495-10920Zm-24.086-27.9v18.9h9.773a9.891,9.891,0,0,0,5.629-1.339,4.384,4.384,0,0,0,1.93-3.819,4.752,4.752,0,0,0-.916-2.956,5.034,5.034,0,0,0-2.538-1.716,4.632,4.632,0,0,0,1.848-1.7,4.625,4.625,0,0,0,.663-2.459,4.2,4.2,0,0,0-1.851-3.591,9.087,9.087,0,0,0-5.3-1.323Zm9.448,15.608h-5.1v-4.672h5.1c2.312,0,3.484.79,3.484,2.349a1.945,1.945,0,0,1-.877,1.754A4.855,4.855,0,0,1-2509.637-10932.293Zm-.756-7.859h-4.345v-4.454h4.345a4.492,4.492,0,0,1,2.458.553,1.871,1.871,0,0,1,.836,1.663,1.89,1.89,0,0,1-.836,1.672A4.4,4.4,0,0,1-2510.394-10940.152Z" transform="translate(2530 10958)" fill="#fff"/></g></svg>