<svg xmlns="http://www.w3.org/2000/svg" xmlns:xlink="http://www.w3.org/1999/xlink" width="39" height="39" viewBox="0 0 39 39"><defs><clipPath id="b"><rect width="39" height="39"/></clipPath></defs><g id="a" clip-path="url(#b)"><path d="M29.648,14.034a28.506,28.506,0,0,0-7.221-2.269,21.17,21.17,0,0,0-.925,1.92,26.513,26.513,0,0,0-8,0,20.526,20.526,0,0,0-.936-1.92A28.412,28.412,0,0,0,5.34,14.04,30.283,30.283,0,0,0,.149,34.317,28.869,28.869,0,0,0,9,38.855a22.024,22.024,0,0,0,1.9-3.124,18.65,18.65,0,0,1-2.987-1.454c.25-.186.5-.38.732-.579a20.409,20.409,0,0,0,17.706,0c.24.2.484.394.732.579a18.6,18.6,0,0,1-2.992,1.456,21.928,21.928,0,0,0,1.9,3.124,28.811,28.811,0,0,0,8.861-4.541,30.253,30.253,0,0,0-5.2-20.282Zm-17.962,16.2a3.4,3.4,0,0,1-3.147-3.579,3.38,3.38,0,0,1,3.147-3.582,3.358,3.358,0,0,1,3.147,3.582,3.375,3.375,0,0,1-3.147,3.579Zm11.628,0a3.4,3.4,0,0,1-3.147-3.579,3.379,3.379,0,0,1,3.147-3.582,3.358,3.358,0,0,1,3.147,3.582,3.377,3.377,0,0,1-3.147,3.579Z" transform="translate(2 -5.811)" fill="#fff"/></g></svg>