<svg xmlns="http://www.w3.org/2000/svg" xmlns:xlink="http://www.w3.org/1999/xlink" width="39" height="39" viewBox="0 0 39 39"><defs><clipPath id="b"><rect width="39" height="39"/></clipPath></defs><g id="a" clip-path="url(#b)"><g transform="translate(5.19 5.189)"><path d="M14.31,2.578c3.821,0,4.274.014,5.782.083a6.128,6.128,0,0,1,4.3,1.563,6.128,6.128,0,0,1,1.563,4.3c.069,1.509.083,1.962.083,5.782s-.014,4.274-.083,5.782A6.128,6.128,0,0,1,24.4,24.4a6.128,6.128,0,0,1-4.3,1.563c-1.509.069-1.962.083-5.782.083s-4.274-.014-5.782-.083a6.128,6.128,0,0,1-4.3-1.563,6.128,6.128,0,0,1-1.563-4.3c-.069-1.509-.083-1.962-.083-5.782s.014-4.274.083-5.782a6.128,6.128,0,0,1,1.563-4.3,6.128,6.128,0,0,1,4.3-1.563C10.045,2.6,10.5,2.59,14.318,2.59ZM14.31,0c-3.886,0-4.374.017-5.9.086A8.551,8.551,0,0,0,2.4,2.4,8.551,8.551,0,0,0,.086,8.41C.017,9.936,0,10.424,0,14.31s.017,4.374.086,5.9A8.551,8.551,0,0,0,2.4,26.218a8.551,8.551,0,0,0,6.01,2.316c1.526.069,2.014.086,5.9.086s4.374-.017,5.9-.086a8.551,8.551,0,0,0,6.008-2.316,8.551,8.551,0,0,0,2.316-6.008c.069-1.526.086-2.014.086-5.9s-.017-4.374-.086-5.9A8.551,8.551,0,0,0,26.218,2.4,8.551,8.551,0,0,0,20.211.086C18.684.017,18.2,0,14.31,0Z" fill="#fff"/><path d="M13.188,6.159a7.348,7.348,0,1,0,7.348,7.348,7.348,7.348,0,0,0-7.348-7.348Zm0,12.118a4.77,4.77,0,1,1,4.77-4.77,4.77,4.77,0,0,1-4.77,4.77ZM20.824,7.59a1.717,1.717,0,1,0-1.717-1.717A1.717,1.717,0,0,0,20.824,7.59Z" transform="translate(1.124 0.8)" fill="#fff"/></g></g></svg>