<svg xmlns="http://www.w3.org/2000/svg" xmlns:xlink="http://www.w3.org/1999/xlink" width="39" height="39" viewBox="0 0 39 39"><defs><clipPath id="b"><rect width="39" height="39"/></clipPath></defs><g id="a" clip-path="url(#b)"><path d="M31.968,8.476c.021.3.021.608.021.92,0,9.353-7.12,20.139-20.139,20.139h0A20.038,20.038,0,0,1,1,26.352a14.4,14.4,0,0,0,1.685.1,14.213,14.213,0,0,0,8.791-3.036A7.087,7.087,0,0,1,4.863,18.5a7.055,7.055,0,0,0,3.2-.122A7.078,7.078,0,0,1,2.38,11.443v-.09a7.033,7.033,0,0,0,3.212.885A7.087,7.087,0,0,1,3.407,2.788,20.089,20.089,0,0,0,17.99,10.183,7.085,7.085,0,0,1,30.052,3.728a14.2,14.2,0,0,0,4.5-1.718,7.1,7.1,0,0,1-3.112,3.91A14.077,14.077,0,0,0,35.5,4.81,14.375,14.375,0,0,1,31.968,8.476Z" transform="translate(1.25 3.984)" fill="#fff"/></g></svg>