<svg xmlns="http://www.w3.org/2000/svg" xmlns:xlink="http://www.w3.org/1999/xlink" width="39" height="39" viewBox="0 0 39 39"><defs><clipPath id="b"><rect width="39" height="39"/></clipPath></defs><g id="a" clip-path="url(#b)"><path d="M17.265,2A15.271,15.271,0,1,0,28.082,6.468,15.281,15.281,0,0,0,17.265,2Zm10.59,9.169H23.347a23.912,23.912,0,0,0-2.108-5.44,12.27,12.27,0,0,1,6.616,5.44ZM17.281,5.117a21.525,21.525,0,0,1,2.919,6.05H14.362a21.525,21.525,0,0,1,2.919-6.05ZM5.453,20.336a11.953,11.953,0,0,1,0-6.112h5.165a25.236,25.236,0,0,0-.214,3.057,25.236,25.236,0,0,0,.214,3.057Zm1.254,3.057h4.507a23.912,23.912,0,0,0,2.108,5.44A12.2,12.2,0,0,1,6.707,23.393Zm4.507-12.224H6.707a12.2,12.2,0,0,1,6.617-5.44,23.912,23.912,0,0,0-2.11,5.44Zm6.066,18.274a21.525,21.525,0,0,1-2.919-6.05H20.2a21.525,21.525,0,0,1-2.919,6.05Zm3.575-9.107H13.7a22.481,22.481,0,0,1-.245-3.057,22.287,22.287,0,0,1,.245-3.057h7.151a22.286,22.286,0,0,1,.245,3.057A22.481,22.481,0,0,1,20.856,20.336Zm.382,8.5a23.912,23.912,0,0,0,2.108-5.44h4.507A12.27,12.27,0,0,1,21.238,28.832Zm2.7-8.5a25.235,25.235,0,0,0,.214-3.057,25.236,25.236,0,0,0-.214-3.057h5.165a11.953,11.953,0,0,1,0,6.112Z" transform="translate(2.22 2.219)" fill="#fff"/></g></svg>