<svg width="3653" height="469" viewBox="0 0 3653 469" fill="none" xmlns="http://www.w3.org/2000/svg">
<path d="M548 280.306C549.113 331.504 589.552 367.862 652.251 367.862C708.272 367.862 748.34 334.843 748.34 288.839C748.711 237.641 706.788 223.914 663.752 216.123C622.942 209.074 596.23 203.509 596.23 176.797C596.23 152.311 616.635 139.697 645.944 139.697C677.108 139.697 698.997 157.505 701.965 183.846H743.888C741.662 137.1 702.707 103.71 645.944 103.71C591.407 103.71 553.565 134.874 553.565 179.765C553.565 231.334 594.375 245.061 637.411 252.481C678.592 259.901 705.675 265.837 705.675 293.291C705.675 318.148 683.415 331.875 652.622 331.875C616.264 331.875 592.149 311.47 589.923 281.048L548 280.306Z" fill="#5546FF"/>
<path d="M790.35 314.067C790.35 348.57 805.932 365.636 842.29 365.636H880.874V330.391H850.452C835.983 330.391 830.789 324.826 830.789 309.986V210.929H876.422V175.684H830.789V122.631H790.35V175.684H757.331V210.929H790.35V314.067Z" fill="#5546FF"/>
<path d="M1044.2 175.684L1039.37 203.509C1027.13 186.072 1007.1 173.458 977.415 173.458C925.846 173.458 887.633 212.042 887.633 270.66C887.633 331.504 925.846 367.862 977.415 367.862C1007.1 367.862 1027.13 353.764 1039.37 336.698L1043.82 365.636H1079.07V175.684H1044.2ZM984.093 334.101C950.703 334.101 928.814 308.131 928.814 270.66C928.814 233.56 950.703 207.59 984.093 207.59C1017.48 207.59 1039.37 233.931 1039.37 271.402C1039.37 308.131 1017.48 334.101 984.093 334.101Z" fill="#5546FF"/>
<path d="M1289.63 297.372H1248.82C1243.99 319.632 1226.93 333.73 1202.07 333.73C1169.79 333.73 1148.65 307.76 1148.65 270.289C1148.65 233.189 1169.79 207.59 1202.07 207.59C1226.19 207.59 1243.25 221.688 1248.45 243.206H1289.63C1282.21 200.541 1251.04 173.458 1203.18 173.458C1145.31 173.458 1107.47 212.042 1107.47 270.289C1107.47 328.907 1144.94 367.862 1202.07 367.862C1250.67 367.862 1282.21 340.779 1289.63 297.372Z" fill="#5546FF"/>
<path d="M1318.04 105.936V365.636H1358.11V317.035L1391.87 281.419L1448.26 365.636H1495.75L1420.44 252.11L1491.3 175.684H1444.92L1358.11 268.434V105.936H1318.04Z" fill="#5546FF"/>
<path d="M1499.68 302.937C1500.79 344.118 1535.29 367.862 1585.75 367.862C1631.38 367.862 1665.51 344.86 1665.51 308.502C1665.51 266.208 1630.27 256.562 1587.6 251.739C1560.52 248.4 1542.34 246.916 1542.34 229.108C1542.34 213.897 1557.92 204.251 1581.3 204.251C1604.67 204.251 1621.36 216.865 1623.22 233.931H1662.17C1659.58 194.976 1626.93 173.458 1580.55 173.458C1535.66 173.087 1503.39 196.46 1503.39 232.447C1503.39 271.773 1537.52 280.677 1580.18 285.871C1609.12 289.581 1626.19 291.436 1626.19 311.47C1626.19 327.052 1609.49 336.698 1585.38 336.698C1557.92 336.698 1539.74 322.6 1538.26 302.937H1499.68Z" fill="#5546FF"/>
<path d="M1789.6 105.936V365.636H1832.26V255.82H1933.92V219.091H1832.26V143.778H1955.43V105.936H1789.6Z" fill="#5546FF"/>
<path d="M2056.36 367.862C2114.24 367.862 2153.2 328.907 2153.2 270.66C2153.2 212.784 2114.24 173.458 2056.36 173.458C1998.49 173.458 1959.53 212.784 1959.53 270.66C1959.53 328.907 1998.49 367.862 2056.36 367.862ZM2056.36 333.73C2022.6 333.73 2000.71 307.389 2000.71 270.66C2000.71 233.931 2022.6 207.59 2056.36 207.59C2090.13 207.59 2112.39 233.931 2112.39 270.66C2112.39 307.389 2090.13 333.73 2056.36 333.73Z" fill="#5546FF"/>
<path d="M2311.93 175.684V269.918C2311.93 309.244 2293.38 332.988 2262.95 332.988C2233.64 332.988 2218.8 313.325 2218.8 276.225V175.684H2178.74V280.306C2178.74 345.973 2213.24 367.862 2253.68 367.862C2282.99 367.862 2300.42 355.99 2312.3 341.521L2316.75 365.636H2351.99V175.684H2311.93Z" fill="#5546FF"/>
<path d="M2487.94 173.458C2457.15 173.458 2438.97 185.701 2427.09 200.541L2422.64 175.684H2387.77V365.636H2427.84V269.918C2427.84 231.334 2446.76 207.961 2478.66 207.961C2508.71 207.961 2523.93 227.253 2523.93 263.24V365.636H2564.36V261.014C2564.36 195.347 2528.75 173.458 2487.94 173.458Z" fill="#5546FF"/>
<path d="M2741.41 105.936V202.025C2729.17 185.33 2708.76 173.458 2679.83 173.458C2628.26 173.458 2590.04 212.042 2590.04 270.66C2590.04 331.504 2628.26 367.862 2679.83 367.862C2709.88 367.862 2729.54 353.764 2741.78 337.069L2746.61 365.636H2781.48V105.936H2741.41ZM2686.5 334.101C2653.11 334.101 2631.23 308.131 2631.23 270.66C2631.23 233.56 2653.11 207.59 2686.5 207.59C2719.89 207.59 2741.78 233.56 2741.78 271.402C2741.78 308.131 2719.89 334.101 2686.5 334.101Z" fill="#5546FF"/>
<path d="M2966.44 175.684L2961.62 203.509C2949.37 186.072 2929.34 173.458 2899.66 173.458C2848.09 173.458 2809.88 212.042 2809.88 270.66C2809.88 331.504 2848.09 367.862 2899.66 367.862C2929.34 367.862 2949.37 353.764 2961.62 336.698L2966.07 365.636H3001.31V175.684H2966.44ZM2906.34 334.101C2872.95 334.101 2851.06 308.131 2851.06 270.66C2851.06 233.56 2872.95 207.59 2906.34 207.59C2939.73 207.59 2961.62 233.931 2961.62 271.402C2961.62 308.131 2939.73 334.101 2906.34 334.101Z" fill="#5546FF"/>
<path d="M3050.09 314.067C3050.09 348.57 3065.67 365.636 3102.03 365.636H3140.61V330.391H3110.19C3095.72 330.391 3090.53 324.826 3090.53 309.986V210.929H3136.16V175.684H3090.53V122.631H3050.09V175.684H3017.07V210.929H3050.09V314.067Z" fill="#5546FF"/>
<path d="M3178.44 100C3164.71 100 3153.95 110.017 3153.95 124.115C3153.95 138.213 3164.71 148.23 3178.44 148.23C3192.17 148.23 3202.93 138.213 3202.93 124.115C3202.93 110.017 3192.17 100 3178.44 100ZM3158.41 175.684V365.636H3198.47V175.684H3158.41Z" fill="#5546FF"/>
<path d="M3323.82 367.862C3381.7 367.862 3420.65 328.907 3420.65 270.66C3420.65 212.784 3381.7 173.458 3323.82 173.458C3265.95 173.458 3226.99 212.784 3226.99 270.66C3226.99 328.907 3265.95 367.862 3323.82 367.862ZM3323.82 333.73C3290.06 333.73 3268.17 307.389 3268.17 270.66C3268.17 233.931 3290.06 207.59 3323.82 207.59C3357.58 207.59 3379.84 233.931 3379.84 270.66C3379.84 307.389 3357.58 333.73 3323.82 333.73Z" fill="#5546FF"/>
<path d="M3549.33 173.458C3518.54 173.458 3500.36 185.701 3488.49 200.541L3484.04 175.684H3449.16V365.636H3489.23V269.918C3489.23 231.334 3508.15 207.961 3540.06 207.961C3570.11 207.961 3585.32 227.253 3585.32 263.24V365.636H3625.76V261.014C3625.76 195.347 3590.14 173.458 3549.33 173.458Z" fill="#5546FF"/>
<path fill-rule="evenodd" clip-rule="evenodd" d="M229 435C340.009 435 430 345.009 430 234C430 122.991 340.009 33 229 33C117.991 33 28 122.991 28 234C28 345.009 117.991 435 229 435ZM321.26 222.913V200.48H266.183L304.861 142H275.62L229.053 212.548L182.64 142H153.399L192.077 200.48H137V223.068H321.26V222.913ZM304.242 326.26L265.1 267.006H321.26V244.728H137V267.161H193.16L154.018 326.26H183.104L229.053 256.64L275.002 326.26H304.242Z" fill="#5546FF"/>
</svg>
