<svg width="2516" height="752" viewBox="0 0 2516 752" fill="none" xmlns="http://www.w3.org/2000/svg">
<g clip-path="url(#clip0_3_234)">
<path d="M225.8 372.4C241.8 377.467 254.333 386 263.4 398C272.467 409.733 277 424.267 277 441.6C277 466.133 267.4 485.067 248.2 498.4C229.267 511.467 201.533 518 165 518H20.2V238H157C191.133 238 217.267 244.533 235.4 257.6C253.8 270.667 263 288.4 263 310.8C263 324.4 259.667 336.533 253 347.2C246.6 357.867 237.533 366.267 225.8 372.4ZM84.6 286.8V352.8H149C165 352.8 177.133 350 185.4 344.4C193.667 338.8 197.8 330.533 197.8 319.6C197.8 308.667 193.667 300.533 185.4 295.2C177.133 289.6 165 286.8 149 286.8H84.6ZM160.2 469.2C177.267 469.2 190.067 466.4 198.6 460.8C207.4 455.2 211.8 446.533 211.8 434.8C211.8 411.6 194.6 400 160.2 400H84.6V469.2H160.2ZM454.6 418.8V518H389.8V418L281.4 238H350.2L425 362.4L499.8 238H563.4L454.6 418.8ZM817.313 465.2V518H572.513V476L726.113 290.8H575.713V238H811.313V280L658.113 465.2H817.313ZM1043.27 458H913.272L888.472 518H822.072L946.872 238H1010.87L1136.07 518H1068.07L1043.27 458ZM1022.87 408.8L978.472 301.6L934.072 408.8H1022.87ZM1421.92 238V518H1368.72L1229.12 348V518H1165.12V238H1218.72L1357.92 408V238H1421.92ZM1546.17 290.8H1456.57V238H1700.57V290.8H1610.97V518H1546.17V290.8ZM1735.43 238H1800.23V518H1735.43V238ZM2002.28 522.8C1973.22 522.8 1946.95 516.533 1923.48 504C1900.28 491.467 1882.02 474.267 1868.68 452.4C1855.62 430.267 1849.08 405.467 1849.08 378C1849.08 350.533 1855.62 325.867 1868.68 304C1882.02 281.867 1900.28 264.533 1923.48 252C1946.95 239.467 1973.22 233.2 2002.28 233.2C2031.35 233.2 2057.48 239.467 2080.68 252C2103.88 264.533 2122.15 281.867 2135.48 304C2148.82 325.867 2155.48 350.533 2155.48 378C2155.48 405.467 2148.82 430.267 2135.48 452.4C2122.15 474.267 2103.88 491.467 2080.68 504C2057.48 516.533 2031.35 522.8 2002.28 522.8ZM2002.28 467.6C2018.82 467.6 2033.75 463.867 2047.08 456.4C2060.42 448.667 2070.82 438 2078.28 424.4C2086.02 410.8 2089.88 395.333 2089.88 378C2089.88 360.667 2086.02 345.2 2078.28 331.6C2070.82 318 2060.42 307.467 2047.08 300C2033.75 292.267 2018.82 288.4 2002.28 288.4C1985.75 288.4 1970.82 292.267 1957.48 300C1944.15 307.467 1933.62 318 1925.88 331.6C1918.42 345.2 1914.68 360.667 1914.68 378C1914.68 395.333 1918.42 410.8 1925.88 424.4C1933.62 438 1944.15 448.667 1957.48 456.4C1970.82 463.867 1985.75 467.6 2002.28 467.6ZM2460.98 238V518H2407.78L2268.18 348V518H2204.18V238H2257.78L2396.98 408V238H2460.98Z" fill="#86E9ED"/>
</g>
<defs>
<clipPath id="clip0_3_234">
<rect width="2516" height="752" fill="white"/>
</clipPath>
</defs>
</svg>
