<svg xmlns="http://www.w3.org/2000/svg" width="25" height="23.75" viewBox="0 0 25 23.75">
  <g id="work_outline_24px" transform="translate(-2 -2.5)">
    <path id="icon_action_work_outline_24px" data-name="icon/action/work_outline_24px" d="M27,10a2.491,2.491,0,0,0-2.5-2.5h-5V5A2.491,2.491,0,0,0,17,2.5H12A2.491,2.491,0,0,0,9.5,5V7.5h-5A2.481,2.481,0,0,0,2.013,10L2,23.75a2.491,2.491,0,0,0,2.5,2.5h20a2.491,2.491,0,0,0,2.5-2.5ZM17,7.5V5H12V7.5ZM4.5,10V23.75h20V10Z" fill="#3feaec" fill-rule="evenodd"/>
  </g>
</svg>
