<svg xmlns="http://www.w3.org/2000/svg" width="25" height="25" viewBox="0 0 25 25">
  <g id="person_outline_24px" transform="translate(-4 -4)">
    <path id="icon_social_person_outline_24px" data-name="icon/social/person_outline_24px" d="M16.5,4a6.25,6.25,0,1,0,6.25,6.25A6.248,6.248,0,0,0,16.5,4Zm3.281,6.25A3.281,3.281,0,1,0,16.5,13.531,3.281,3.281,0,0,0,19.781,10.25Zm6.25,14.063c0-1-4.891-3.281-9.531-3.281s-9.531,2.281-9.531,3.281v1.719H26.031ZM4,24.313c0-4.156,8.328-6.25,12.5-6.25S29,20.156,29,24.313V29H4Z" fill="#5fecef" fill-rule="evenodd"/>
  </g>
</svg>
