<svg xmlns="http://www.w3.org/2000/svg" width="25" height="23.685" viewBox="0 0 25 23.685">
  <path id="account_balance_wallet_24px" d="M24.184,2.632v3A2.633,2.633,0,0,1,25.5,7.895v7.895a2.633,2.633,0,0,1-1.316,2.263v3a2.639,2.639,0,0,1-2.632,2.632H3.132A2.631,2.631,0,0,1,.5,21.053V2.632A2.631,2.631,0,0,1,3.132,0H21.553A2.639,2.639,0,0,1,24.184,2.632ZM13.658,15.789h9.211V7.895H13.658ZM3.132,21.053V2.632H21.553V5.263H13.658a2.639,2.639,0,0,0-2.632,2.632v7.895a2.639,2.639,0,0,0,2.632,2.632h7.895v2.632Zm12.5-9.211a1.974,1.974,0,1,1,1.974,1.974A1.974,1.974,0,0,1,15.632,11.842Z" transform="translate(-0.5)" fill="#5fecef" fill-rule="evenodd"/>
</svg>
