<svg xmlns="http://www.w3.org/2000/svg" width="28.732" height="28.732" viewBox="0 0 28.732 28.732">
  <path id="shopping_cart" d="M9.62,24.986a2.873,2.873,0,1,0,2.873,2.873A2.869,2.869,0,0,0,9.62,24.986ZM1,2V4.873H3.873l5.172,10.9L7.106,19.3a2.778,2.778,0,0,0-.359,1.379A2.882,2.882,0,0,0,9.62,23.549H26.859V20.676H10.223a.356.356,0,0,1-.359-.359l.043-.172L11.2,17.8H21.9a2.86,2.86,0,0,0,2.514-1.48L29.56,7a1.4,1.4,0,0,0,.172-.69A1.441,1.441,0,0,0,28.3,4.873H7.048L5.7,2ZM23.986,24.986a2.873,2.873,0,1,0,2.873,2.873A2.869,2.869,0,0,0,23.986,24.986Z" transform="translate(-1 -2)" fill="#5fecef"/>
</svg>
