<svg xmlns="http://www.w3.org/2000/svg" width="28.732" height="28.732" viewBox="0 0 28.732 28.732">
  <path id="local_offer" d="M29.885,15.763,16.955,2.833A2.855,2.855,0,0,0,14.93,2H4.873A2.882,2.882,0,0,0,2,4.873V14.93a2.867,2.867,0,0,0,.848,2.04L15.777,29.9a2.855,2.855,0,0,0,2.026.833,2.809,2.809,0,0,0,2.026-.848L29.885,19.828a2.809,2.809,0,0,0,.848-2.026A2.9,2.9,0,0,0,29.885,15.763ZM7.028,9.183A2.155,2.155,0,1,1,9.183,7.028,2.152,2.152,0,0,1,7.028,9.183Z" transform="translate(-2 -2)" fill="#5fecef"/>
</svg>
