<svg xmlns="http://www.w3.org/2000/svg" width="20.969" height="19.865" viewBox="0 0 20.969 19.865">
  <path id="account_balance_wallet_24px" d="M20.365,2.207V4.724a2.208,2.208,0,0,1,1.1,1.9v6.622a2.208,2.208,0,0,1-1.1,1.9v2.516a2.214,2.214,0,0,1-2.207,2.207H2.707A2.207,2.207,0,0,1,.5,17.658V2.207A2.207,2.207,0,0,1,2.707,0H18.158A2.214,2.214,0,0,1,20.365,2.207ZM11.536,13.243h7.725V6.622H11.536ZM2.707,17.658V2.207H18.158V4.414H11.536A2.214,2.214,0,0,0,9.329,6.622v6.622a2.214,2.214,0,0,0,2.207,2.207h6.622v2.207ZM13.192,9.933a1.655,1.655,0,1,1,1.655,1.655A1.655,1.655,0,0,1,13.192,9.933Z" transform="translate(-0.5)" fill="#041d24" fill-rule="evenodd"/>
</svg>
