<svg xmlns="http://www.w3.org/2000/svg" width="38.155" height="39.438" viewBox="0 0 38.155 39.438">
  <g id="Group_97" data-name="Group 97" transform="translate(-6405.423 -8014.282)">
    <path id="Subtraction_72" data-name="Subtraction 72" d="M6.027,34H2a2,2,0,0,1-2-2V2A2.011,2.011,0,0,1,1.948,0H6.028A4.494,4.494,0,0,0,6,.5a4.5,4.5,0,0,0,9,0,4.757,4.757,0,0,0-.029-.5H19a2,2,0,0,1,2,2V32a2,2,0,0,1-2,2H14.972A4.857,4.857,0,0,0,15,33.5a4.5,4.5,0,1,0-9,0,4.358,4.358,0,0,0,.027.5ZM17.8,10a.3.3,0,0,0-.3.3v.4a.3.3,0,0,0,.3.3h1.4a.3.3,0,0,0,.3-.3v-.4a.3.3,0,0,0-.3-.3Zm-4,0a.3.3,0,0,0-.3.3v.4a.3.3,0,0,0,.3.3h1.4a.3.3,0,0,0,.3-.3v-.4a.3.3,0,0,0-.3-.3Zm-4,0a.3.3,0,0,0-.3.3v.4a.3.3,0,0,0,.3.3h1.4a.3.3,0,0,0,.3-.3v-.4a.3.3,0,0,0-.3-.3Zm-4,0a.3.3,0,0,0-.3.3v.4a.3.3,0,0,0,.3.3H7.2a.3.3,0,0,0,.3-.3v-.4a.3.3,0,0,0-.3-.3Zm-4,0a.3.3,0,0,0-.3.3v.4a.3.3,0,0,0,.3.3H3.2a.3.3,0,0,0,.3-.3v-.4a.3.3,0,0,0-.3-.3Z" transform="translate(6427.73 8014.282) rotate(41)" fill="#5fecef"/>
  </g>
</svg>
