<svg xmlns="http://www.w3.org/2000/svg" width="25" height="25" viewBox="0 0 25 25">
  <g id="collections_24px" transform="translate(-2 -2)">
    <path id="icon_image_collections_24px" data-name="icon/image/collections_24px" d="M9.5,2h15A2.507,2.507,0,0,1,27,4.5v15A2.507,2.507,0,0,1,24.5,22H9.5A2.507,2.507,0,0,1,7,19.5V4.5A2.507,2.507,0,0,1,9.5,2Zm15,17.5V4.5H9.5v15ZM13.875,14.087l2.112,2.825,3.1-3.875L23.25,18.25H10.75ZM2,24.5V7H4.5V24.5H22V27H4.5A2.507,2.507,0,0,1,2,24.5Z" fill="#041d24" fill-rule="evenodd"/>
  </g>
</svg>
