<svg xmlns="http://www.w3.org/2000/svg" width="35" height="27.093" viewBox="0 0 35 27.093">
  <path id="Path_135" data-name="Path 135" d="M29.648,14.034a28.506,28.506,0,0,0-7.221-2.269,21.171,21.171,0,0,0-.925,1.92,26.513,26.513,0,0,0-8,0,20.527,20.527,0,0,0-.936-1.92,28.412,28.412,0,0,0-7.226,2.275A30.283,30.283,0,0,0,.149,34.317,28.869,28.869,0,0,0,9,38.855a22.024,22.024,0,0,0,1.9-3.124,18.65,18.65,0,0,1-2.987-1.454c.25-.186.5-.38.732-.579a20.409,20.409,0,0,0,17.706,0c.24.2.484.394.732.579a18.6,18.6,0,0,1-2.992,1.456,21.928,21.928,0,0,0,1.9,3.124,28.811,28.811,0,0,0,8.861-4.541A30.253,30.253,0,0,0,29.648,14.034Zm-17.962,16.2a3.4,3.4,0,0,1-3.147-3.579,3.38,3.38,0,0,1,3.147-3.582,3.358,3.358,0,0,1,3.147,3.582A3.375,3.375,0,0,1,11.686,30.234Zm11.628,0a3.4,3.4,0,0,1-3.147-3.579,3.379,3.379,0,0,1,3.147-3.582,3.358,3.358,0,0,1,3.147,3.582A3.377,3.377,0,0,1,23.314,30.234Z" transform="translate(0 -11.765)" fill="#041d24"/>
</svg>
