<svg xmlns="http://www.w3.org/2000/svg" width="25.667" height="28" viewBox="0 0 25.667 28">
  <path id="pan_tool" d="M26.667,6.417V23.333A4.68,4.68,0,0,1,22,28H13.483a4.659,4.659,0,0,1-3.325-1.388L1,17.3s1.47-1.435,1.517-1.458a1.382,1.382,0,0,1,.922-.338,1.425,1.425,0,0,1,.7.187c.047.012,5.028,2.87,5.028,2.87V4.667a1.75,1.75,0,0,1,3.5,0v8.167h1.167V1.75a1.75,1.75,0,0,1,3.5,0V12.833H18.5V2.917a1.75,1.75,0,0,1,3.5,0v9.917h1.167V6.417a1.75,1.75,0,0,1,3.5,0Z" transform="translate(-1)" fill="#041d24"/>
</svg>
