<svg xmlns="http://www.w3.org/2000/svg" width="25" height="25" viewBox="0 0 25 25">
  <g id="exit_to_app_24px" transform="translate(-3 -3)">
    <path id="icon_action_exit_to_app_24px" data-name="icon/action/exit_to_app_24px" d="M5.778,3H25.222A2.786,2.786,0,0,1,28,5.778V25.222A2.786,2.786,0,0,1,25.222,28H5.778A2.777,2.777,0,0,1,3,25.222V19.667H5.778v5.556H25.222V5.778H5.778v5.556H3V5.778A2.777,2.777,0,0,1,5.778,3Zm9.028,19.444-1.958-1.958,3.583-3.6H3V14.111H16.431l-3.583-3.6,1.958-1.958L21.75,15.5Z" fill="#3feaec" fill-rule="evenodd"/>
  </g>
</svg>
