<svg width="25" height="27" viewBox="0 0 25 27" fill="none" xmlns="http://www.w3.org/2000/svg">
<line x1="3.08037" y1="6.2906" x2="23.6926" y2="26.5333" stroke="#5FECEF"/>
<mask id="mask0_675_260" style="mask-type:alpha" maskUnits="userSpaceOnUse" x="0" y="0" width="25" height="27">
<path fill-rule="evenodd" clip-rule="evenodd" d="M22 20V5.5C22 4.67 21.33 4 20.5 4C19.67 4 19 4.67 19 5.5V11H18V2.5C18 1.67 17.33 1 16.5 1C15.67 1 15 1.67 15 2.5V11H14V1.5C14 0.67 13.33 0 12.5 0C11.67 0 11 0.67 11 1.5V11H10V4C10 3.17 9.33 2.5 8.5 2.5C7.67 2.5 7 3.17 7 4V8.15611L4.07803 5.28653L3.37735 6L7 9.5577V15.91C7 15.91 2.73 13.46 2.69 13.45C2.51 13.35 2.31 13.29 2.09 13.29C1.79 13.29 1.52 13.39 1.3 13.58C1.26 13.6 0 14.83 0 14.83L7.85 22.81C8.6 23.57 9.62 24 10.7 24H18C19.0209 24 19.9556 23.6124 20.6644 22.9771L23.9896 26.2427L24.6903 25.5293L21.322 22.2213C21.7498 21.5848 22 20.8202 22 20ZM21.322 22.2213L7 8.15611V9.5577L20.6644 22.9771C20.9135 22.7537 21.1347 22.4998 21.322 22.2213Z" fill="#5FECEF"/>
</mask>
<g mask="url(#mask0_675_260)">
<path d="M22 5.5V20C22 22.2 20.2 24 18 24H10.7C9.62 24 8.6 23.57 7.85 22.81L0 14.83C0 14.83 1.26 13.6 1.3 13.58C1.52 13.39 1.79 13.29 2.09 13.29C2.31 13.29 2.51 13.35 2.69 13.45C2.73 13.46 7 15.91 7 15.91V4C7 3.17 7.67 2.5 8.5 2.5C9.33 2.5 10 3.17 10 4V11H11V1.5C11 0.67 11.67 0 12.5 0C13.33 0 14 0.67 14 1.5V11H15V2.5C15 1.67 15.67 1 16.5 1C17.33 1 18 1.67 18 2.5V11H19V5.5C19 4.67 19.67 4 20.5 4C21.33 4 22 4.67 22 5.5Z" fill="#5FECEF"/>
</g>
</svg>
