<svg xmlns="http://www.w3.org/2000/svg" width="27.296" height="28.732" viewBox="0 0 27.296 28.732">
  <path id="child_friendly" d="M17.8,2V13.493H29.3A11.49,11.49,0,0,0,17.8,2Zm9.079,19.955A11.418,11.418,0,0,0,29.3,14.93H8.379L7.014,12.056H2V14.93H5.189s2.715,5.847,3.046,6.35a5.026,5.026,0,1,0,7.356,5.143h2.988a5.024,5.024,0,1,0,8.3-4.468Zm-16.263,5.9A2.155,2.155,0,1,1,12.775,25.7,2.152,2.152,0,0,1,10.62,27.859Zm12.93,0A2.155,2.155,0,1,1,25.7,25.7,2.152,2.152,0,0,1,23.549,27.859Z" transform="translate(-2 -2)" fill="#041d24"/>
</svg>
