<svg id="Logo_1_" xmlns="http://www.w3.org/2000/svg" width="30" height="24.376" viewBox="0 0 30 24.376">
  <path id="white_background" d="M27.929,7.566c.018.264.018.529.018.8,0,8.133-6.191,17.512-17.512,17.512v0A17.424,17.424,0,0,1,1,23.11a12.521,12.521,0,0,0,1.465.089,12.359,12.359,0,0,0,7.644-2.64,6.163,6.163,0,0,1-5.75-4.274,6.135,6.135,0,0,0,2.779-.106A6.155,6.155,0,0,1,2.2,10.146v-.078a6.116,6.116,0,0,0,2.793.77,6.163,6.163,0,0,1-1.9-8.218A17.469,17.469,0,0,0,15.774,9.05,6.161,6.161,0,0,1,26.263,3.437a12.351,12.351,0,0,0,3.909-1.494,6.178,6.178,0,0,1-2.706,3.4A12.241,12.241,0,0,0,31,4.378,12.5,12.5,0,0,1,27.929,7.566Z" transform="translate(-1 -1.497)" fill="#041d24"/>
</svg>
