<svg xmlns="http://www.w3.org/2000/svg" width="21.777" height="24.1" viewBox="0 0 21.777 24.1">
  <g id="share_24px" transform="translate(-3 -2.04)">
    <path id="icon_social_share_24px" data-name="icon/social/share_24px" d="M18.776,20.006a3.521,3.521,0,1,1-1.161,2.6,3.413,3.413,0,0,1,.1-.786L9.1,16.788a3.63,3.63,0,1,1,0-5.3l8.529-4.972a3.961,3.961,0,0,1-.109-.847,3.65,3.65,0,1,1,1.161,2.65L10.15,13.292a3.966,3.966,0,0,1,.109.847,3.967,3.967,0,0,1-.109.847ZM22.358,5.67a1.21,1.21,0,1,0-1.21,1.21A1.213,1.213,0,0,0,22.358,5.67ZM6.63,15.348a1.21,1.21,0,1,1,1.21-1.21A1.213,1.213,0,0,1,6.63,15.348Zm13.308,7.283a1.21,1.21,0,1,0,1.21-1.21A1.213,1.213,0,0,0,19.938,22.632Z" transform="translate(0 0)" fill="#5fecef" fill-rule="evenodd"/>
  </g>
</svg>
